<svg width="27" height="18" viewBox="0 0 27 18" fill="none" xmlns="http://www.w3.org/2000/svg">
<path d="M0.963072 8.89592C0.801569 4.64372 4.52612 0.714165 8.7826 0.663183C10.952 0.478149 13.0626 1.3206 14.7044 2.69463C14.0309 3.43512 13.3457 4.16705 12.6138 4.85228C11.1684 3.97417 9.42826 3.30499 7.73907 3.8993C5.01455 4.67509 3.36458 7.89196 4.37282 10.5573C5.20779 13.341 8.59365 14.8687 11.2472 13.6993C12.6212 13.2073 13.5272 11.9395 13.9247 10.5773C12.3499 10.5459 10.7748 10.5655 9.20008 10.522C9.19616 9.58507 9.19224 8.6517 9.19616 7.71477C11.8223 7.71085 14.4523 7.70301 17.0824 7.72654C17.2439 10.0222 16.9052 12.4789 15.4128 14.3214C13.3692 16.9515 9.59368 17.7233 6.52227 16.6916C3.26262 15.6209 0.892125 12.337 0.963072 8.89592Z" fill="white"/>
<path d="M22.2006 5.35205C22.9803 5.35205 23.7596 5.35205 24.5429 5.35205C24.5472 6.13568 24.5547 6.92323 24.559 7.7065C25.3422 7.71435 26.1298 7.71827 26.9134 7.72219C26.9134 8.50582 26.9134 9.28517 26.9134 10.0688C26.1301 10.0727 25.3426 10.0766 24.559 10.0806C24.5511 10.8681 24.5472 11.6514 24.5429 12.4389C23.7596 12.435 22.9757 12.4389 22.1963 12.4389C22.1888 11.6514 22.1888 10.8681 22.1806 10.0845C21.3973 10.0763 20.6098 10.0727 19.8262 10.0684C19.8262 9.28481 19.8262 8.50546 19.8262 7.72183C20.6098 7.71791 21.3934 7.71399 22.1806 7.70615C22.1845 6.92323 22.1924 6.13568 22.2006 5.35205Z" fill="white"/>
</svg>
