<svg width="80" height="81" viewBox="0 0 80 81" fill="none" xmlns="http://www.w3.org/2000/svg">
<mask id="mask0" mask-type="alpha" maskUnits="userSpaceOnUse" x="0" y="0" width="80" height="81">
<path d="M40.0005 80.3616C61.9384 80.3616 79.7227 62.5774 79.7227 40.6394C79.7227 18.7015 61.9384 0.917236 40.0005 0.917236C18.0625 0.917236 0.27832 18.7015 0.27832 40.6394C0.27832 62.5774 18.0625 80.3616 40.0005 80.3616Z" fill="white"/>
</mask>
<g mask="url(#mask0)">
<path d="M9.07863 68.7477C8.04874 68.7477 6.67554 68.0868 6.33225 67.0954C5.30235 65.7736 5.64565 63.791 7.36214 62.7996L22.124 53.8775C24.8704 51.8948 28.6466 51.8948 32.0796 53.2166C35.8559 54.8689 45.125 54.8689 48.9012 53.2166C51.9909 51.5644 55.7672 51.8948 58.5136 53.5471L72.9321 62.7996C74.6486 63.791 74.9919 65.7736 73.962 67.4259C72.9321 69.0781 70.8723 69.4086 69.1559 68.4172L54.7373 59.1647C54.0507 58.8342 53.0208 58.5038 51.9909 59.1647C46.4982 61.8083 34.826 62.1387 28.9899 59.4951C27.96 58.8342 26.5869 59.1647 25.9003 59.4951L11.1384 68.4172C10.4518 68.7477 9.76523 68.7477 9.07863 68.7477Z" fill="white"/>
<path d="M39.6317 47.2695C30.0194 47.2695 22.4668 39.9996 22.4668 30.7471C22.4668 21.4946 30.0194 14.2247 39.6317 14.2247C49.2441 14.2247 56.7966 21.4946 56.7966 30.7471C56.7966 39.9996 49.2441 47.2695 39.6317 47.2695ZM39.6317 20.8337C33.7956 20.8337 29.3328 25.1295 29.3328 30.7471C29.3328 36.3647 33.7956 40.6605 39.6317 40.6605C45.4678 40.6605 49.9307 36.3647 49.9307 30.7471C49.9307 25.1295 45.4678 20.8337 39.6317 20.8337Z" fill="white"/>
</g>
</svg>
